<svg xmlns="http://www.w3.org/2000/svg" width="761" height="741" viewBox="0 0 761 741" fill="none">
<g filter="url(#filter0_d_271_94)">
<path fill-rule="evenodd" clip-rule="evenodd" d="M399.484 68.7313C470.579 59.9191 548.642 35.5684 609.075 74.0394C670.224 112.966 693 191.756 705.03 263.239C715.849 327.526 695.144 390.09 672.555 451.243C650.879 509.926 625.054 566.939 577.734 607.857C527.286 651.48 466.127 689.93 399.484 687.372C333.774 684.851 286.747 629.269 230.903 594.549C169.342 556.274 76.0299 543.776 56.3233 474.016C36.5275 403.941 110.321 344.469 141.693 278.756C167.832 224.005 177.487 160.025 224.523 121.704C272.949 82.2508 337.495 76.4148 399.484 68.7313Z" fill="#F9BF68"/>
</g>
<defs>
<filter id="filter0_d_271_94" x="0.0999985" y="0.0999985" width="760.787" height="740.293" filterUnits="userSpaceOnUse" color-interpolation-filters="sRGB">
<feFlood flood-opacity="0" result="BackgroundImageFix"/>
<feColorMatrix in="SourceAlpha" type="matrix" values="0 0 0 0 0 0 0 0 0 0 0 0 0 0 0 0 0 0 127 0" result="hardAlpha"/>
<feOffset/>
<feGaussianBlur stdDeviation="26.45"/>
<feComposite in2="hardAlpha" operator="out"/>
<feColorMatrix type="matrix" values="0 0 0 0 0.976471 0 0 0 0 0.74902 0 0 0 0 0.407843 0 0 0 1 0"/>
<feBlend mode="normal" in2="BackgroundImageFix" result="effect1_dropShadow_271_94"/>
<feBlend mode="normal" in="SourceGraphic" in2="effect1_dropShadow_271_94" result="shape"/>
</filter>
</defs>
</svg>